<svg xmlns="http://www.w3.org/2000/svg" xmlns:xlink="http://www.w3.org/1999/xlink" width="15" height="15" viewBox="0 0 15 15"><defs><clipPath id="a"><rect width="15" height="15" transform="translate(0 -0.5)" fill="#fff" stroke="#707070" stroke-width="1"/></clipPath></defs><g transform="translate(15 14.5) rotate(180)" clip-path="url(#a)"><g transform="translate(0 2.125)"><path d="M14.61,1.594H.8A.8.8,0,0,1,.8,0H14.61a.8.8,0,1,1,0,1.594Z" transform="translate(0 4.781)" fill="#fff"/><path d="M.8,11.157A.8.8,0,0,1,.233,9.8L4.451,5.578.233,1.36A.8.8,0,1,1,1.36.233L6.142,5.015a.8.8,0,0,1,0,1.127L1.36,10.923A.794.794,0,0,1,.8,11.157Z" transform="translate(9.032)" fill="#fff"/></g></g></svg>