<svg xmlns="http://www.w3.org/2000/svg" xmlns:xlink="http://www.w3.org/1999/xlink" width="15" height="15" viewBox="0 0 15 15"><defs><clipPath id="a"><rect width="15" height="15" fill="#22242c" stroke="#707070" stroke-width="1"/></clipPath></defs><g clip-path="url(#a)"><g transform="translate(0 2.125)"><path d="M15.644,11.594H1.831a.8.8,0,0,1,0-1.594H15.644a.8.8,0,1,1,0,1.594Z" transform="translate(-1.034 -5.219)" fill="#22242c"/><path d="M13.555,14.95a.8.8,0,0,1-.564-1.36L17.21,9.371,12.992,5.154a.8.8,0,0,1,1.127-1.127L18.9,8.808a.8.8,0,0,1,0,1.127l-4.781,4.781A.794.794,0,0,1,13.555,14.95Z" transform="translate(-3.727 -3.793)" fill="#22242c"/></g></g></svg>