<svg xmlns="http://www.w3.org/2000/svg" xmlns:xlink="http://www.w3.org/1999/xlink" width="15" height="15" viewBox="0 0 15 15"><defs><clipPath id="a"><rect width="15" height="15" transform="translate(0 -0.5)" fill="#fff" stroke="#707070" stroke-width="1"/></clipPath></defs><g transform="translate(15 14.5) rotate(180)" clip-path="url(#a)"><g transform="translate(0 1.569)"><path d="M14.224,1.552H.776A.776.776,0,0,1,.776,0H14.224a.776.776,0,1,1,0,1.552Z" transform="translate(0 4.655)" fill="#fff"/><path d="M.776,10.862A.776.776,0,0,1,.227,9.538L4.334,5.431.227,1.325a.776.776,0,0,1,1.1-1.1L5.98,4.882a.776.776,0,0,1,0,1.1L1.325,10.635A.773.773,0,0,1,.776,10.862Z" transform="translate(8.793)" fill="#fff"/></g></g></svg>