<svg xmlns="http://www.w3.org/2000/svg" width="14" height="14" viewBox="0 0 14 14"><g transform="translate(0)"><path d="M5.086,0H1.067A1.067,1.067,0,0,0,0,1.066V5.085A1.067,1.067,0,0,0,1.067,6.151H5.086A1.067,1.067,0,0,0,6.152,5.085V1.066A1.067,1.067,0,0,0,5.086,0Z" transform="translate(-0.001)" fill="#fff"/><path d="M171.591,0h-4.02a1.067,1.067,0,0,0-1.066,1.066V5.085a1.067,1.067,0,0,0,1.066,1.066h4.02a1.067,1.067,0,0,0,1.066-1.066V1.066A1.067,1.067,0,0,0,171.591,0Z" transform="translate(-158.657)" fill="#fff"/><path d="M5.086,166.507H1.067A1.067,1.067,0,0,0,0,167.573v4.02a1.067,1.067,0,0,0,1.066,1.066H5.086a1.067,1.067,0,0,0,1.066-1.066v-4.02A1.067,1.067,0,0,0,5.086,166.507Z" transform="translate(-0.001 -158.658)" fill="#fff"/><path d="M171.591,166.507h-4.02a1.067,1.067,0,0,0-1.066,1.066v4.019a1.067,1.067,0,0,0,1.066,1.066h4.02a1.067,1.067,0,0,0,1.066-1.066v-4.02A1.067,1.067,0,0,0,171.591,166.507Z" transform="translate(-158.657 -158.658)" fill="#fff"/></g></svg>