<svg xmlns="http://www.w3.org/2000/svg" width="25.781" height="40" viewBox="0 0 25.781 40"><g transform="translate(-91 0)"><circle cx="1.172" cy="1.172" r="1.172" transform="translate(98.029 16.563)" fill="#fd9700"/><circle cx="1.172" cy="1.172" r="1.172" transform="translate(107.404 16.563)" fill="#fd9700"/><path d="M116.343,27.858c-1.689-2.965-1.906-6.649-1.906-9.528v-.752a10.5,10.5,0,0,0-2.271-6.53,4.684,4.684,0,0,0-3.5-8.57,5.835,5.835,0,0,0-9.545,0,4.684,4.684,0,0,0-3.5,8.57,10.5,10.5,0,0,0-2.271,6.53v.752c0,2.878-.217,6.563-1.906,9.528-.8,1.413-.575,3.2,1.313,4.667a10.607,10.607,0,0,0,2.937,1.527c0,.029,0,.059,0,.089A5.866,5.866,0,0,0,101.546,40a5.681,5.681,0,0,0,2.344-.506,5.682,5.682,0,0,0,2.344.506,5.866,5.866,0,0,0,5.859-5.859c0-.03,0-.059,0-.089a10.607,10.607,0,0,0,2.937-1.527c1.888-1.464,2.118-3.253,1.313-4.667ZM99.1,4.96a1.172,1.172,0,0,0,1.6-.554,3.5,3.5,0,0,1,6.381,0,1.172,1.172,0,0,0,1.6.554A2.337,2.337,0,1,1,110.4,9.285a10.527,10.527,0,0,0-13.018,0A2.337,2.337,0,1,1,99.1,4.96Zm7.138,32.7a3.456,3.456,0,0,1-1.754-.491,1.172,1.172,0,0,0-1.179,0,3.455,3.455,0,0,1-1.754.491,3.52,3.52,0,0,1-3.516-3.516c0-.929,0-.965,2.312-4.787l.675-1.116,2.044,2.044a1.172,1.172,0,0,0,1.657,0l2.044-2.044.675,1.116c2.312,3.822,2.312,3.858,2.312,4.787A3.52,3.52,0,0,1,106.234,37.656ZM100.86,24.766l3.03-3.03,3.03,3.03-3.03,3.03Zm10.682,6.99c-.482-.979-1.371-2.4-3.072-5.226l.936-.936a1.172,1.172,0,0,0,0-1.657l-4.687-4.688a1.172,1.172,0,0,0-1.657,0l-4.687,4.688a1.172,1.172,0,0,0,0,1.657l.936.936c-1.675,2.78-2.587,4.24-3.072,5.226-1.98-.755-2.895-1.684-2.895-2.3a.876.876,0,0,1,.131-.435c1.961-3.443,2.213-7.52,2.213-10.688v-.752a8.2,8.2,0,0,1,16.406,0v.752c0,3.167.251,7.244,2.213,10.688a.876.876,0,0,1,.131.435c0,.619-.914,1.548-2.895,2.3Z" fill="#fd9700"/></g></svg>