<svg xmlns="http://www.w3.org/2000/svg" width="35.937" height="40" viewBox="0 0 35.937 40"><g transform="translate(-26.001)"><g transform="translate(26.001)"><path d="M56.676,9.267A17.82,17.82,0,0,0,45.142,4.031V2.344H46.86A1.172,1.172,0,0,0,46.86,0H41.079a1.172,1.172,0,0,0,0,2.344H42.8V4.031a17.782,17.782,0,0,0-8.336,2.682L33.348,5.6a2.867,2.867,0,0,0-4.059,0L27.6,7.294a2.871,2.871,0,0,0,0,4.05l1.121,1.123a17.97,17.97,0,1,0,27.959-3.2ZM29.256,8.95l1.693-1.7a.523.523,0,0,1,.741,0l.849.851q-.661.548-1.276,1.163t-1.157,1.275l-.851-.852A.524.524,0,0,1,29.256,8.95ZM43.97,37.656A15.66,15.66,0,1,1,59.595,22,15.66,15.66,0,0,1,43.97,37.656Z" transform="translate(-26.001)" fill="#f90"/></g><g transform="translate(30.532 8.533)"><path d="M97.437,109.226a13.463,13.463,0,1,0,13.438,13.463A13.466,13.466,0,0,0,97.437,109.226Zm1.172,24.52v-1.37a1.172,1.172,0,1,0-2.344,0v1.37a11.127,11.127,0,0,1-9.86-9.885h1.345a1.172,1.172,0,0,0,0-2.344H86.4a11.127,11.127,0,0,1,9.86-9.885V113a1.172,1.172,0,0,0,2.344,0v-1.37a11.127,11.127,0,0,1,9.86,9.885h-1.345a1.172,1.172,0,0,0,0,2.344h1.345A11.127,11.127,0,0,1,98.608,133.746Z" transform="translate(-83.999 -109.226)" fill="#f90"/></g><g transform="translate(42.863 15.409)"><path d="M245.835,203.141h-1.653V198.4a1.172,1.172,0,1,0-2.344,0v5.911a1.172,1.172,0,0,0,1.172,1.172h2.825a1.172,1.172,0,1,0,0-2.344Z" transform="translate(-241.838 -197.23)" fill="#f90"/></g></g></svg>