<svg xmlns="http://www.w3.org/2000/svg" xmlns:xlink="http://www.w3.org/1999/xlink" width="325.035" height="327.84" viewBox="0 0 325.035 327.84"><defs><linearGradient id="a" x1="1.003" y1="0.208" x2="0.398" y2="0.591" gradientUnits="objectBoundingBox"><stop offset="0.004" stop-color="#e38ddd"/><stop offset="1" stop-color="#9571f6"/></linearGradient><clipPath id="b"><path d="M1082.382,693.58c6.729-14.857,14.431-37.818,11.244-64.585-3.659-30.736-18.331-38.4-28.607-71.945-14.669-47.886,11.158-78.613-7.653-94.8-9.174-7.9-24.764-9.6-35.119-3.794C992.7,475,990.977,560.9,1030.88,598.828c18.047,17.153,35.412,17.237,48.069,38.272C1090.132,655.686,1086.647,678.226,1082.382,693.58Z" transform="translate(-1000.456 -455.006)"/></clipPath><linearGradient id="c" x1="0.614" y1="0.23" x2="0.417" y2="0.78" gradientUnits="objectBoundingBox"><stop offset="0" stop-color="#aa80f9"/><stop offset="0.996" stop-color="#6165d7"/></linearGradient><clipPath id="d"><path d="M672.132,1104.832c3.494-12.522,6.869-32.307-1.576-51.244-14.733-33.038-48.859-26.318-76.836-63.038-22.565-29.617-12.267-49.612-38.564-70.522-4.4-3.5-27.588-22.648-47.234-14.767-11.071,4.441-16.106,15.481-17.051,17.554-14.287,31.323,13.281,85.788,53.89,113.741,23.332,16.06,31.8,12.56,73.721,32.888A246.888,246.888,0,0,1,672.132,1104.832Z" transform="translate(-487.056 -903.374)"/></clipPath><linearGradient id="e" x1="0.458" y1="0.334" x2="0.516" y2="1.221" xlink:href="#a"/><linearGradient id="f" x1="-0.248" y1="0.127" x2="0.49" y2="0.614" gradientUnits="objectBoundingBox"><stop offset="0" stop-color="#ff9085"/><stop offset="1" stop-color="#fb6fbb"/></linearGradient><linearGradient id="g" x1="-0.553" y1="0.1" x2="0.458" y2="0.587" xlink:href="#f"/><linearGradient id="h" x1="0.214" y1="0.323" x2="0.931" y2="0.953" xlink:href="#f"/><linearGradient id="i" x1="0.364" y1="-0.088" x2="0.54" y2="1.094" xlink:href="#a"/><linearGradient id="j" x1="0.113" y1="0.311" x2="0.932" y2="0.944" xlink:href="#f"/><linearGradient id="k" x1="-0.175" y1="0.249" x2="0.027" y2="0.324" xlink:href="#a"/><linearGradient id="l" x1="-0.175" y1="0.249" x2="0.027" y2="0.324" xlink:href="#a"/><linearGradient id="m" x1="0.118" y1="0.5" x2="1.619" y2="0.466" gradientUnits="objectBoundingBox"><stop offset="0" stop-color="#444b8c"/><stop offset="0.996" stop-color="#26264f"/></linearGradient><linearGradient id="n" x1="0.794" y1="0.113" x2="-0.747" y2="2.041" gradientUnits="objectBoundingBox"><stop offset="0" stop-color="#ffc444"/><stop offset="0.996" stop-color="#f36f56"/></linearGradient><linearGradient id="o" x1="0.793" y1="0.123" x2="-0.826" y2="2.208" xlink:href="#n"/><linearGradient id="p" x1="0" y1="0.5" x2="1" y2="0.5" xlink:href="#f"/><linearGradient id="q" x1="0" y1="0.5" x2="1" y2="0.5" xlink:href="#f"/><linearGradient id="s" x1="0" y1="0.5" x2="1" y2="0.5" xlink:href="#f"/><linearGradient id="t" x1="0" y1="0.5" x2="1" y2="0.5" xlink:href="#f"/><linearGradient id="u" x1="-32.576" y1="10.777" x2="-33.42" y2="6.738" gradientUnits="objectBoundingBox"><stop offset="0" stop-color="#311944"/><stop offset="1" stop-color="#893976"/></linearGradient><linearGradient id="v" x1="0.416" y1="0.207" x2="0.655" y2="0.651" xlink:href="#n"/><linearGradient id="w" x1="-21.156" y1="1.152" x2="-21.156" y2="-0.027" xlink:href="#n"/><linearGradient id="x" x1="-22.154" y1="0.734" x2="-22.154" y2="-0.116" xlink:href="#n"/><linearGradient id="y" x1="-3.004" y1="0.5" x2="-2.004" y2="0.5" xlink:href="#u"/><linearGradient id="z" x1="-3.036" y1="0.129" x2="-2.316" y2="0.731" xlink:href="#u"/><linearGradient id="aa" x1="-2.753" y1="0.047" x2="-2.032" y2="0.677" xlink:href="#u"/><linearGradient id="ab" x1="-2.935" y1="-13.206" x2="-2.113" y2="-11.65" xlink:href="#a"/><linearGradient id="ac" x1="-2.388" y1="0.343" x2="-1.95" y2="1.272" xlink:href="#a"/><linearGradient id="ad" x1="-26.509" y1="3.551" x2="-25.957" y2="5.666" xlink:href="#a"/><linearGradient id="ae" x1="-31.511" y1="11.665" x2="-31.964" y2="8.828" xlink:href="#u"/><linearGradient id="af" x1="1.253" y1="7.474" x2="0.613" y2="1.611" xlink:href="#u"/><linearGradient id="ag" x1="-2.21" y1="-0.093" x2="-1.475" y2="1.694" xlink:href="#m"/><linearGradient id="ah" x1="-3.61" y1="1.019" x2="-2.844" y2="2.819" xlink:href="#a"/><linearGradient id="ai" x1="-2.582" y1="-0.327" x2="-2.125" y2="1.644" xlink:href="#a"/></defs><g transform="translate(-478.349 -455.006)"><g transform="translate(477.195 455.006)"><g transform="translate(1.155 0)"><g transform="translate(60.112)"><path d="M1082.382,693.58c6.729-14.857,14.431-37.818,11.244-64.585-3.659-30.736-18.331-38.4-28.607-71.945-14.669-47.886,11.158-78.613-7.653-94.8-9.174-7.9-24.764-9.6-35.119-3.794C992.7,475,990.977,560.9,1030.88,598.828c18.047,17.153,35.412,17.237,48.069,38.272C1090.132,655.686,1086.647,678.226,1082.382,693.58Z" transform="translate(-1000.456 -455.006)" fill="url(#a)"/><g clip-path="url(#b)"><path d="M1301.036,601.654a117.6,117.6,0,0,0-4.53-19.633c-4.739-14.643-10.809-23.076-18.495-33.75a273.833,273.833,0,0,1-17.06-26c-11.89-20.826-15.5-28.081-18.2-39.438a108.645,108.645,0,0,1,.379-51.232,105.94,105.94,0,0,1,17.837-37.191l.455.34a105.343,105.343,0,0,0-17.741,36.993,108.064,108.064,0,0,0-.377,50.961c2.686,11.288,6.279,18.517,18.138,39.288a273.585,273.585,0,0,0,17.028,25.949c7.715,10.716,13.808,19.18,18.575,33.907a118.141,118.141,0,0,1,4.552,19.729Z" transform="translate(-1211.842 -401.505)" fill="#fff"/><path d="M1077.222,570.624l-.384-.266a57.5,57.5,0,0,1-13.952-15.279c-5.756-9.119-11.462-24.072-5.959-43.529l.546.155c-5.446,19.256.2,34.051,5.892,43.071a57.993,57.993,0,0,0,13.416,14.837c2.193-15.753,13.444-24.895,22.546-29.8a70.392,70.392,0,0,1,19.625-6.975l.091.56a69.807,69.807,0,0,0-19.46,6.921c-9.07,4.894-20.3,14.044-22.3,29.843Z" transform="translate(-1048.345 -504.93)" fill="#fff"/><path d="M1030.286,1103.141c-9.292,0-21.384-2.362-31.516-12.179l.395-.408c18.229,17.663,42.913,10.878,45.538,10.087-4.479-30.816,17.211-44.061,17.431-44.191l.289.488c-.218.129-21.695,13.26-17.124,43.861l.035.235-.226.075A52.457,52.457,0,0,1,1030.286,1103.141Z" transform="translate(-998.967 -986.029)" fill="#fff"/><path d="M1190.084,1372.669c-7.145,0-16.194-1.662-26.9-6.947l.252-.509c26.869,13.262,43.086,3.53,44.882,2.35-5.084-16.76,7.354-41.583,7.481-41.833l.507.256c-.126.25-12.562,25.067-7.383,41.608l.061.194-.164.121C1208.71,1367.985,1202.081,1372.669,1190.084,1372.669Z" transform="translate(-1144.127 -1223.78)" fill="#fff"/></g></g><g transform="translate(0 52.498)"><path d="M672.132,1104.832c3.494-12.522,6.869-32.307-1.576-51.244-14.733-33.038-48.859-26.318-76.836-63.038-22.565-29.617-12.267-49.612-38.564-70.522-4.4-3.5-27.588-22.648-47.234-14.767-11.071,4.441-16.106,15.481-17.051,17.554-14.287,31.323,13.281,85.788,53.89,113.741,23.332,16.06,31.8,12.56,73.721,32.888A246.888,246.888,0,0,1,672.132,1104.832Z" transform="translate(-487.056 -903.374)" fill="url(#c)"/><g clip-path="url(#d)"><path d="M864.22,1025.212c-3.018-31.015-12.759-52.676-28.948-64.382-7.9-5.713-14.544-7.2-21.579-8.785-7.677-1.725-15.617-3.507-25.548-11.09-9.665-7.379-12.711-13.789-16.569-21.9a120.358,120.358,0,0,0-18.11-28.667A128.344,128.344,0,0,0,731.3,869.27c-6.684-5.219-11.965-9.341-17.6-18.666-9.183-15.194-12.826-33.781-10.827-55.244l.566.053c-1.987,21.34,1.629,39.81,10.747,54.9,5.581,9.236,10.826,13.329,17.465,18.511a128.813,128.813,0,0,1,22.252,21.2,120.864,120.864,0,0,1,18.186,28.788c3.824,8.046,6.845,14.4,16.4,21.7,9.834,7.508,17.71,9.277,25.328,10.987,7.093,1.594,13.793,3.1,21.789,8.879,16.327,11.8,26.145,33.6,29.18,64.786Z" transform="translate(-677.133 -808.007)" fill="#fff"/><path d="M481.888,986.955l-.379-.029A83.5,83.5,0,0,1,431.764,965.6a78.951,78.951,0,0,1-15.534-18.669l.5-.271A78.37,78.37,0,0,0,432.161,965.2a82.938,82.938,0,0,0,49.017,21.133c-.852-4.33-8.3-44.94,8.539-60.148l.381.422c-17.466,15.777-8.383,59.541-8.29,59.981Z" transform="translate(-424.523 -923.51)" fill="#fff"/><path d="M545.744,1318.641q-.646,0-1.3-.008a98.927,98.927,0,0,1-58.842-19.859l.343-.453a101.275,101.275,0,0,0,86.127,16.355c-3.613-22.812,5.142-53.507,5.231-53.815l.546.158c-.089.309-8.872,31.1-5.178,53.812l.039.241-.232.075A96.737,96.737,0,0,1,545.744,1318.641Z" transform="translate(-485.771 -1219.003)" fill="#fff"/><path d="M1010.559,1706.368a147.438,147.438,0,0,1-19.089-1.258l.074-.563c41.018,5.353,67.368-8.08,70.249-9.636-14.417-22.464-4.227-55.519-4.121-55.851l.541.171c-.1.331-10.291,33.385,4.222,55.626l.164.25-.259.15C1062.112,1695.389,1042.754,1706.368,1010.559,1706.368Z" transform="translate(-932.41 -1552.921)" fill="#fff"/></g></g></g><g transform="translate(3.423 118.004)"><path d="M861.978,1522.074a1.606,1.606,0,0,1-1.6-1.452c-1.405-14.744-6.213-28.752-13.535-39.445-6.488-9.473-14.212-15.126-20.665-15.126h-.021c-23.505.046-28.422,54.011-28.468,54.557a1.6,1.6,0,1,1-3.2-.275c.2-2.345,5.234-57.44,31.66-57.492h.028c7.625,0,16.12,6.021,23.312,16.522,7.626,11.134,12.627,25.678,14.083,40.955a1.605,1.605,0,0,1-1.445,1.75C862.08,1522.072,862.029,1522.074,861.978,1522.074Z" transform="translate(-760.76 -1462.84)" fill="url(#e)"/><path d="M509.719,2020.033l30.941,15.665,18.748-57.531-30.891-77.127-8.759,2.147-13.291,110.77A6.01,6.01,0,0,0,509.719,2020.033Z" transform="translate(-506.425 -1849.733)" fill="url(#f)"/><path d="M667.281,1978.167,636.39,1901.04l-5.167,1.267a167.925,167.925,0,0,0,.085,24.944c2.071,26.259,8.948,33.568,5.617,51.886-2.77,15.232-8.82,17.3-8.291,27.548.576,11.162,8.361,20.508,17.616,27.858l2.283,1.156Z" transform="translate(-614.296 -1849.733)" opacity="0.52" fill="url(#g)"/><path d="M695.12,1901.04H810.49L848.672,2024.3,707.263,2035.7Z" transform="translate(-673.026 -1849.733)" fill="url(#h)"/><path d="M966.628,1534.385a1.6,1.6,0,0,1-1.561-1.239c-.328-1.4-7.908-34.427,2.78-50.636a18.62,18.62,0,0,1,12.72-8.43c27.629-4.869,44.639,54.473,45.35,57a1.6,1.6,0,1,1-3.09.868c-.166-.591-16.911-59.087-41.7-54.709a15.327,15.327,0,0,0-10.6,7.036c-9.935,15.068-2.412,47.808-2.335,48.137a1.6,1.6,0,0,1-1.2,1.928A1.52,1.52,0,0,1,966.628,1534.385Z" transform="translate(-908.795 -1472.513)" fill="url(#i)"/><g transform="translate(41.156 51.307)" opacity="0.3"><path d="M954.237,1901.04H897c-2.823,2.871-4.826,6.18-5.017,9.893-.9,17.44,39.193,23.169,43.06,47.072,2.789,17.243-14.374,37.137-29.687,46-16.135,9.339-27.067,4.61-37.978,14.978a35.781,35.781,0,0,0-9.45,16.157l134.49-10.836Z" transform="translate(-857.93 -1901.04)" fill="url(#j)"/></g><circle cx="4.484" cy="4.484" r="4.484" transform="translate(53.36 57.63)" fill="url(#k)"/><circle cx="4.484" cy="4.484" r="4.484" transform="translate(111.846 57.214)" fill="url(#l)"/></g><g transform="translate(86.539 25.54)"><path d="M1355.354,689.041q15.032,127.047,30.064,251.442a6.421,6.421,0,0,1-5.713,7.313q-60.413,5.731-120.826,11.713c-7.184.349-11.13-3.666-11.592-7.686q-15.473-134.285-30.945-271.382c-.463-4.105,3.015-7.633,10.2-7.283q60.712,4.329,121.421,8.543A8.49,8.49,0,0,1,1355.354,689.041Z" transform="translate(-1216.302 -673.135)" fill="#26264f"/><path d="M1396.423,689.023q15.127,127.6,30.253,252.516a6.454,6.454,0,0,1-5.749,7.346q-62.731,5.313-125.463,10.836a7.44,7.44,0,0,1-7.79-6.722q-15.57-134.9-31.14-272.647c-.466-4.123,2.3-7.287,6.144-7.026q63.153,4.213,126.307,8.325A8.536,8.536,0,0,1,1396.423,689.023Z" transform="translate(-1251.778 -673.291)" fill="url(#m)"/><path d="M1439.791,823.163q14.01,118.222,28.021,234.137a6.009,6.009,0,0,1-5.372,6.852q-59,4.824-117.992,9.833a6.961,6.961,0,0,1-7.255-6.277q-14.4-124.6-28.793-251.633c-.433-3.831,2.14-6.8,5.716-6.585q59.363,3.456,118.726,6.84A7.893,7.893,0,0,1,1439.791,823.163Z" transform="translate(-1297.576 -793.514)" fill="url(#n)"/><path d="M1486.92,817.029q-58.661-3.344-117.32-6.759a89.686,89.686,0,0,0,6.871,22.227c12.972,28.143,32.028,29.692,39.484,54.216,7.681,25.266-9.641,33.173-1.179,55.984,9.183,24.753,31.7,21.17,43.609,48.323,10.26,23.4-2.948,34.1,7.661,48.323,11.629,15.589,33.141,10.3,55.471,15.583q-13.826-114.412-27.651-231.064A7.889,7.889,0,0,0,1486.92,817.029Z" transform="translate(-1351.651 -794.213)" opacity="0.35" fill="url(#o)"/><path d="M1848.228,759.394a1.969,1.969,0,0,1-2.057,2.345,3.008,3.008,0,0,1-2.635-2.633,1.962,1.962,0,0,1,2.059-2.343A3.01,3.01,0,0,1,1848.228,759.394Z" transform="translate(-1770.079 -746.967)" fill="#de8bdf"/><ellipse cx="9.052" cy="10.678" rx="9.052" ry="10.678" transform="translate(83.225 67.234)" fill="url(#p)"/><ellipse cx="9.051" cy="10.678" rx="9.051" ry="10.678" transform="translate(119.257 67.234)" fill="url(#q)"/><ellipse cx="9.181" cy="10.678" rx="9.181" ry="10.678" transform="translate(101.012 67.234)" fill="#d8dee8"/><ellipse cx="9.052" cy="10.678" rx="9.052" ry="10.678" transform="translate(155.286 67.234)" fill="url(#p)"/><ellipse cx="9.181" cy="10.678" rx="9.181" ry="10.678" transform="translate(137.043 67.234)" fill="#d8dee8"/><ellipse cx="9.181" cy="10.678" rx="9.181" ry="10.678" transform="translate(173.072 67.234)" fill="#d8dee8"/><ellipse cx="9.181" cy="10.678" rx="9.181" ry="10.678" transform="translate(64.982 67.234)" fill="#d8dee8"/><path d="M1293.26,800.55l56.167,64.44H1494.4l-70.247-56.279Z" transform="translate(-1284.249 -785.631)" fill="url(#s)"/><g transform="translate(9.011 14.919)"><path d="M1293.26,800.55l56.167,64.44h18.165l-59.224-63.5Z" transform="translate(-1293.26 -800.55)" fill="#f4f7fa"/><path d="M1560.85,817.23l60.9,62.487h17.943l-62.5-61.467Z" transform="translate(-1529.519 -815.277)" fill="#f4f7fa"/><path d="M1841.04,834.71l64.023,60.44h18.029l-65.463-59.406Z" transform="translate(-1776.902 -830.71)" fill="#f4f7fa"/><path d="M2142.324,853.49l-16.844-1.05L2192.3,910.8h18.118Z" transform="translate(-2028.038 -846.365)" fill="#f4f7fa"/></g><path d="M2851.07,1350.91c.6,5.211,4.376,9.232,8.958,9.232s8.359-4.021,8.958-9.232Z" transform="translate(-2659.661 -1271.552)" fill="url(#t)"/><path d="M1782.747,1527.761c-7.84-18.069-27.731-26.844-44.426-19.6s-23.874,27.765-16.034,45.833,27.731,26.844,44.426,19.6S1790.588,1545.83,1782.747,1527.761Zm-24.619,25.75.668,5.089-4.889.643-.623-4.741a20.237,20.237,0,0,1-8.765-1.03l.729-6.035a17.786,17.786,0,0,0,8.572,1.106c2.845-.373,4.646-1.728,4.384-3.723-.25-1.9-2-2.884-5.86-3.646-5.576-1.095-9.546-3.111-10.182-7.951-.576-4.391,2.064-8.241,7.265-9.99l-.623-4.741,4.891-.642.577,4.391a18.115,18.115,0,0,1,7.453.7l-.706,5.83a16.686,16.686,0,0,0-7.409-.752c-3.243.426-4.107,1.961-3.924,3.358.217,1.646,2.1,2.465,6.552,3.5,6.214,1.316,8.969,3.746,9.56,8.236C1766.381,1547.552,1763.736,1551.757,1758.129,1553.511Z" transform="translate(-1660.24 -1408.147)" fill="#f4f7fa" opacity="0.63"/><g transform="translate(55.305 187.03)" opacity="0.63"><path d="M1773.759,2301.195l-76.419,2.315a5.435,5.435,0,0,1-5.537-4.615l-3.1-20.373a5.435,5.435,0,0,1,5.247-6.25l76.5-1.771a5.434,5.434,0,0,1,5.5,4.617l3.015,19.83A5.436,5.436,0,0,1,1773.759,2301.195Z" transform="translate(-1688.643 -2270.498)" fill="#f4f7fa"/><path d="M1819.008,2593.773l-76.373,2.612a5.434,5.434,0,0,1-5.558-4.614l-.03-.192a5.435,5.435,0,0,1,5.2-6.249l76.4-2.42a5.435,5.435,0,0,1,5.545,4.616h0A5.437,5.437,0,0,1,1819.008,2593.773Z" transform="translate(-1731.324 -2546.328)" fill="#f4f7fa"/></g></g><g transform="translate(185.223 127.956)"><path d="M2064.293,1639.289a8.718,8.718,0,0,0,.114-4.682c-1.052-4.008-4.9-6.254-5.248-5.96-.186.158.424,1.245.726,1.718.629.983,1,.988,1.114,1.49.236,1.034-1.219,1.5-1.6,3.073a3.788,3.788,0,0,0,1,3.451A4.279,4.279,0,0,0,2064.293,1639.289Z" transform="translate(-2059.124 -1619.163)" fill="url(#u)"/><path d="M2860.142,2297.186l-1.182-4.063,4.931-3.653,3.072-1.15-1.82,5.686Z" transform="translate(-2765.31 -2201.62)" fill="url(#v)"/><path d="M2816.93,3057.882s2.7,6.784,1.987,9.792a30.157,30.157,0,0,0,4.769-.426,32.861,32.861,0,0,1-1.391-4.626,45.46,45.46,0,0,1-.283-5.421Z" transform="translate(-2728.201 -2880.475)" fill="url(#w)"/><path d="M2497.963,3198.265a2.125,2.125,0,0,1,.51,1.246,2.02,2.02,0,0,1-.153.835c-.46,1.21-1.182,1.37-1.961,2.653-.477.784-.386,1.021-.822,1.375a2.856,2.856,0,0,1-1.873.5,33.317,33.317,0,0,1-4.332-.245q1.452-1.871,3.091-3.793.72-.841,1.437-1.644l2.845-.961Q2497.333,3198.249,2497.963,3198.265Z" transform="translate(-2438.958 -3004.991)" fill="#26264f"/><path d="M2502.095,3080.55s-1.626,8.486.443,10.862c1.763,2.376-.851.682-.851.682l-3.123,2.725-1.874,3.236s1.725-8.306,1.265-11.6-.69-5.52-.69-5.52Z" transform="translate(-2445.457 -2901.091)" fill="url(#x)"/><path d="M2457.52,2275.136s-4.37,3.909-4.37,20.007,2.07,51.051,2.07,51.051l3.313,25.025a21.916,21.916,0,0,0,5.734-.568c2.07-9.429,5.442-25.377,3.832-38.715-.689-14.487,5.749-32.654,5.749-32.654s5.52,18.4,9.429,27.595,11.353,38.015,12.042,40.084c4.574.415,6.528-.795,6.528-.795s-2.933-31.011-5.693-42.739-2.529-40.013-7.129-48.062C2478.676,2271.226,2457.52,2275.136,2457.52,2275.136Z" transform="translate(-2407.015 -2188.503)" fill="url(#y)"/><path d="M2457.52,2275.136s-4.37,3.909-4.37,20.007,2.07,51.051,2.07,51.051l3.313,25.025a21.916,21.916,0,0,0,5.734-.568c2.07-9.429,5.442-25.377,3.832-38.715-.689-14.487,5.749-32.654,5.749-32.654s5.52,18.4,9.429,27.595,11.353,38.015,12.042,40.084c4.574.415,6.528-.795,6.528-.795s-2.933-31.011-5.693-42.739-2.529-40.013-7.128-48.062C2478.676,2271.226,2457.52,2275.136,2457.52,2275.136Z" transform="translate(-2407.015 -2188.503)" fill="url(#z)"/><path d="M2480.226,2304.621c1.363,8.855,4.088,13.624,10.9,19.755,5.449,4.088,1.363,12.943,3.406,19.755.681,2.043,2.725,4.087,3.406,6.131,2.535,5.07.167,11.272,1.317,16.639a7.289,7.289,0,0,0,2.6-.745s-2.933-31.011-5.693-42.739-2.529-40.013-7.128-48.062c-10.348-4.139-31.5-.229-31.5-.229s-4.369,3.909-4.369,20.007c0,1.307.014,2.737.039,4.263,4.536,4.015,13.813,4.906,19.535.457a2.7,2.7,0,0,1,1.094-.5c.018-.05.029-.085.029-.085s.009.032.025.08C2476.484,2298.877,2479.636,2302.258,2480.226,2304.621Z" transform="translate(-2407.024 -2188.495)" opacity="0.25" fill="url(#aa)"/><g transform="translate(89.387 184.747)"><path d="M2823.171,3168.64s-.672,0-.616.867-.3,3.854,3.114,3.994,3.944-.242,4.055-.242a27.907,27.907,0,0,0-.9-2.857l-1.092-1.4-2.94-.308Z" transform="translate(-2822.552 -3163.614)" fill="#26264f"/><path d="M2831.6,3133.731a10.848,10.848,0,0,0-.883-2.77c-.6-1.357-.108-1.865-.685-3.1a3.69,3.69,0,0,0-.814-1.234,3.53,3.53,0,0,0-2.412-.919,2.445,2.445,0,0,0-1.136.267,2.656,2.656,0,0,0-1.022,1.078,12.045,12.045,0,0,0-.823,2.441,6.013,6.013,0,0,0-.306,1.576c.9,0,4.34.141,5.069.672a2.854,2.854,0,0,1,1.092,2.324c0,.9.448,1.316.9,1.288A1.471,1.471,0,0,0,2831.6,3133.731Z" transform="translate(-2823.407 -3125.706)" fill="#444b8c"/></g><path d="M2492.344,3163.139c.769.012,1.333.624,1.76,2.1s2.469,2.782.086,2.469-4.116,3.066-4.967,4.315-3.138,2.358-3.081,1.138,1.066-1.792,1.349-3.039S2490.589,3163.111,2492.344,3163.139Z" transform="translate(-2436.144 -2974.009)" fill="#444b8c"/><path d="M2553.748,1869.182c.1-1.668.611-12.576-7.5-20.032-6.64-6.1-15.105-6.264-16.306-6.269-7.317-.032-9.951,3.507-12.761,1.771-4.768-2.944-4.635-17.732,2.479-22.753,8.018-5.661,22.14,3.04,28.726,9.535a37.239,37.239,0,0,1,10.457,21.22,36.347,36.347,0,0,1-.8,13.328Z" transform="translate(-2460.661 -1788.196)" fill="url(#ab)"/><path d="M2388.947,1821.639c-8.046,1.994-14.144,3.9-16.6,8.373-2.6,4.721,2.3,7.774,4.288,17.572,3.041,15-5.252,21.292-1.635,36.355a39.5,39.5,0,0,0,4.63,11.195,41.581,41.581,0,0,0,13.011,6.153c8.474,2.288,12.427.31,23.59.135,18.26-.287,21.366,4.788,29.344.946,8.064-3.883,13.426-13.178,11.39-16.833-1.22-2.189-4.444-.531-9.417-2.966-6.41-3.138-5.735-8.107-11.03-11.942-7.606-5.508-14.055,1.085-20.566-3.712-6.586-4.853-8.268-17.7-6.193-25.571,1.356-5.141.989-10.6,1.892-15.838a3.322,3.322,0,0,0-.213-1.878c-1.231-2.884-6.687-3.057-10.806-3.15A46.877,46.877,0,0,0,2388.947,1821.639Z" transform="translate(-2335.016 -1788.545)" fill="url(#ac)"/><path d="M2461.7,1821.363l1.429-.939s1.028,2,6.148.8a7.848,7.848,0,0,0,4.153-2.908l1.3.469a8.58,8.58,0,0,1-5.259,4.633A7.811,7.811,0,0,1,2461.7,1821.363Z" transform="translate(-2414.564 -1786.651)" fill="url(#ad)"/><g transform="translate(48.389)"><path d="M2472.463,1723.6a7,7,0,0,1,1.343-4.888c1.295-1.829,1.6-2.063,2.146-2.342l.755-.349s.043-.012.088-.021a8.181,8.181,0,0,1,2.318.136c.97.333,1.542,4.515.552,10.212q.04.676.081,1.351c2.236-.245,2.875-.014,2.981.288.229.653-1.854,2.178-4,2.86-2.687.856-5.9.527-6.1-.358-.08-.358.3-.941,2.146-1.939l.544-1.564C2474.944,1726.729,2472.74,1725.384,2472.463,1723.6Z" transform="translate(-2472.4 -1696.277)" fill="url(#ae)"/><path d="M2492.872,1763.871c.507-.546,1.205.108,1.116.883a1.421,1.421,0,0,1-1.644,1.249C2491.636,1765.762,2492.19,1764.607,2492.872,1763.871Z" transform="translate(-2489.718 -1738.399)" fill="url(#af)"/><path d="M2573.528,1550.166c-10.633-6.422-28.742,1.451-37.126,11.527-3.9,4.682-5.26,9.272-10.894,11.261-4.283,1.513-11.685,1.889-16.7-1.768-.632-.46-3.2-2.419-6.869-4.76-1.619-1.031-3.208-1.98-5.169-1.729a3.785,3.785,0,0,0-2.909,1.595,3.823,3.823,0,0,0,.156,3.547c.332.578.544.586.635,1,.254,1.166-1.684,2.269-1.4,2.811.2.387,1.242-.079,1.579.384.369.507-.68,1.339-.777,2.912-.772.92-.914,2.693-.5,4.89a20.266,20.266,0,0,0,2.816,7.438c5.554,8.42,9.527,14.441,15.561,16.7,7.987,2.985,12.586-3.251,29.082-8.821,22.586-7.626,30.541-1.531,37.219-9.224C2586.563,1578.323,2584.567,1556.833,2573.528,1550.166Z" transform="translate(-2490.781 -1547.84)" fill="url(#ag)"/></g><path d="M2078.843,1712.471c.353,1.973,2.123,10.638,10.039,16.089a25.175,25.175,0,0,0,17.011,3.981c7.252-.969,9.379-4.834,12.4-3.5,5.126,2.264,7.016,16.932.656,22.879-7.169,6.7-22.347.016-29.76-5.518a37.237,37.237,0,0,1-13.26-19.591,36.367,36.367,0,0,1-1.027-13.313,6.456,6.456,0,0,1,3.941-1.027Z" transform="translate(-2072.87 -1693.182)" fill="url(#ah)"/><path d="M2462.775,2229.214c-2.64-1.494-1.623-6.35-5.536-8.6-3.631-2.091-6.107,1.171-11.321-.021-6.688-1.528-6.805-7.852-13.22-9.4-4.613-1.117-5.763,1.861-12.257,2.459s-15.187-1.461-21.077-7.949a23.249,23.249,0,0,1-4.917-8.615c-1.327,5.734-2.816,11.292-.875,19.377a39.506,39.506,0,0,0,4.63,11.195,41.572,41.572,0,0,0,13.011,6.153c8.474,2.288,12.427.31,23.59.135,18.259-.287,21.366,4.788,29.344.946a23.645,23.645,0,0,0,10.912-11.187C2468.255,2229.45,2464.691,2230.3,2462.775,2229.214Z" transform="translate(-2353.591 -2121.063)" opacity="0.3" fill="url(#ai)"/></g></g></g></svg>