<svg xmlns="http://www.w3.org/2000/svg" width="18.38" height="14" viewBox="0 0 18.38 14"><g transform="translate(0 -61)" opacity="1"><g transform="translate(4.308 61)"><path d="M132.457,61H121.615a1.615,1.615,0,1,0,0,3.231h10.841a1.615,1.615,0,1,0,0-3.231Z" transform="translate(-120 -61)" fill="#fff"/></g><g transform="translate(4.308 66.385)"><path d="M132.457,211H121.615a1.615,1.615,0,1,0,0,3.231h10.841a1.615,1.615,0,1,0,0-3.231Z" transform="translate(-120 -211)" fill="#fff"/></g><g transform="translate(4.308 71.769)"><path d="M132.457,361H121.615a1.615,1.615,0,1,0,0,3.231h10.841a1.615,1.615,0,1,0,0-3.231Z" transform="translate(-120 -361)" fill="#fff"/></g><g transform="translate(0 61)"><path d="M1.615,61a1.615,1.615,0,1,0,1.615,1.615A1.617,1.617,0,0,0,1.615,61Z" transform="translate(0 -61)" fill="#fff"/></g><g transform="translate(0 66.385)"><path d="M1.615,211a1.615,1.615,0,1,0,1.615,1.615A1.617,1.617,0,0,0,1.615,211Z" transform="translate(0 -211)" fill="#fff"/></g><g transform="translate(0 71.769)"><path d="M1.615,361a1.615,1.615,0,1,0,1.615,1.615A1.617,1.617,0,0,0,1.615,361Z" transform="translate(0 -361)" fill="#fff"/></g></g></svg>