<svg xmlns="http://www.w3.org/2000/svg" width="34" height="40" viewBox="0 0 34 40"><g transform="translate(-36.645)"><g transform="translate(36.645)"><g transform="translate(0)"><path d="M64.882,7.058A14.116,14.116,0,0,0,70.48,1.8,1.2,1.2,0,0,0,70.49.6,1.18,1.18,0,0,0,69.463,0H37.827A1.18,1.18,0,0,0,36.8.6a1.2,1.2,0,0,0,.01,1.2,14.115,14.115,0,0,0,5.6,5.259,16.639,16.639,0,0,0,6.736,1.881V12H43.558a4.156,4.156,0,0,0-4.109,3.666L37.061,35.319a4.2,4.2,0,0,0,1.009,3.273A4.128,4.128,0,0,0,41.17,40H66.121a4.128,4.128,0,0,0,3.1-1.407,4.2,4.2,0,0,0,1.009-3.273L67.843,15.666A4.156,4.156,0,0,0,63.734,12H58.146V8.939A16.643,16.643,0,0,0,64.882,7.058Zm-1.148,7.325A1.783,1.783,0,0,1,65.5,15.956l2.387,19.653a1.777,1.777,0,0,1-.433,1.4,1.748,1.748,0,0,1-1.33.6H41.17a1.747,1.747,0,0,1-1.33-.6,1.777,1.777,0,0,1-.433-1.4l2.387-19.653a1.783,1.783,0,0,1,1.763-1.573H63.734ZM51.508,12V8.974h4.274V12Zm5.544-5.409H50.238a13.543,13.543,0,0,1-10.07-4.208H67.122A13.544,13.544,0,0,1,57.052,6.591Z" transform="translate(-36.645)" fill="#fd9700"/></g></g><g transform="translate(43.591 15.53)"><path d="M141.062,207.8a10.055,10.055,0,1,0,10.055,10.055A10.066,10.066,0,0,0,141.062,207.8Zm0,17.656a7.6,7.6,0,1,1,7.6-7.6A7.61,7.61,0,0,1,141.062,225.459Z" transform="translate(-131.007 -207.803)" fill="#fd9700"/></g><g transform="translate(49.528 24.697)"><path d="M209.077,317.907a1.227,1.227,0,0,0-1.735,0l-2.954,2.954a1.227,1.227,0,1,0,1.735,1.735l2.954-2.954A1.227,1.227,0,0,0,209.077,317.907Z" transform="translate(-204.028 -317.547)" fill="#fd9700"/></g></g></svg>