<svg xmlns="http://www.w3.org/2000/svg" width="11" height="13.188" viewBox="0 0 11 13.188"><g transform="translate(-42.432)"><g transform="translate(46.287)"><path d="M191.935,0V1.1h1.1v.55a3.688,3.688,0,0,1,1.1,0V1.1h1.1V0Z" transform="translate(-191.935)" fill="#f90"/></g><g transform="translate(42.432 1.265)"><g transform="translate(0)"><path d="M51.677,51.432l.385-.385.44.44.77-.77-1.65-1.65-.77.77.44.44-.5.5a5.445,5.445,0,1,0,.88.66ZM47.937,59.3a3.85,3.85,0,0,1,0-7.7v3.85h3.85A3.827,3.827,0,0,1,47.937,59.3Z" transform="translate(-42.432 -49.067)" fill="#f90"/></g></g></g></svg>